<?xml version="1.0" encoding="UTF-8"?>
<svg width="15px" height="15px" viewBox="0 0 15 15" version="1.1" xmlns="http://www.w3.org/2000/svg" xmlns:xlink="http://www.w3.org/1999/xlink">
    <title>Group 15</title>
    <g id="Web-Pages" stroke="none" stroke-width="1" fill="none" fill-rule="evenodd">
        <g id="Home-Page" transform="translate(-690.000000, -5511.000000)" fill="#07E99A">
            <g id="Group-21" transform="translate(-10.000000, 4806.000000)">
                <g id="Group-30" transform="translate(0.000000, 190.000000)">
                    <g id="Reviews" transform="translate(140.000000, 235.000000)">
                        <g id="Group-4" transform="translate(560.000000, 280.000000)">
                            <polygon id="Fill-1" points="6.67369565 7.60869566e-05 6.67391304 5.54594565 2.7525 1.62496739 1.62456522 2.75301087 5.5475 6.67561957 -7.99360578e-15 6.67583696 -7.99360578e-15 8.27105435 5.5475 8.27083696 1.6251087 12.193663 2.75315217 13.3215978 13.3213043 2.75257609 12.1931522 1.6246413 8.26913043 5.54909783 8.26880435 7.60869566e-05"></polygon>
                            <polygon id="Fill-1" transform="translate(8.277781, 8.249886) rotate(-180.000000) translate(-8.277781, -8.249886) " points="8.29082433 1.58912531 8.29104172 7.13499488 4.36962867 3.21401662 3.24169389 4.34206009 7.16462867 8.26466879 1.61712867 8.26488618 1.61712867 9.86010357 7.16462867 9.85988618 3.24223737 13.7827123 4.37028085 14.9106471 14.938433 4.34162531 13.8102808 3.21369053 9.88625911 7.13814705 9.88593302 1.58912531"></polygon>
                        </g>
                    </g>
                </g>
            </g>
        </g>
    </g>
</svg>