<?xml version="1.0" encoding="UTF-8"?>
<svg width="60px" height="60px" viewBox="0 0 60 60" version="1.1" xmlns="http://www.w3.org/2000/svg" xmlns:xlink="http://www.w3.org/1999/xlink">
    <title>Group 3</title>
    <g id="Web-Pages" stroke="none" stroke-width="1" fill="none" fill-rule="evenodd">
        <g id="Contact-us" transform="translate(-1117.000000, -1169.000000)">
            <g id="Group-9" transform="translate(0.000000, 1078.000000)">
                <g id="Group-6" transform="translate(535.000000, 0.000000)">
                    <g id="Group-3" transform="translate(582.000000, 91.000000)">
                        <circle id="Oval" fill="#07E99A" opacity="0.303780692" cx="30" cy="30" r="30"></circle>
                        <g id="Group" transform="translate(9.000000, 13.000000)">
                            <g id="Group-2" transform="translate(0.000000, 0.565891)">
                                <g id="Group-14" transform="translate(-0.000000, 0.000000)">
                                    <g id="Group-4" transform="translate(0.000000, 0.096862)">
                                        <polygon id="Fill-1" fill="#FFFFFF" points="14.4582883 0.000163105288 14.4589947 11.8886746 5.96317851 3.48339304 3.51955401 5.90154545 12.0184315 14.3103221 0 14.3107881 0 17.730407 12.0184315 17.729941 3.52073143 26.1391836 5.96459142 28.557103 28.8598248 5.90061342 26.4159648 3.48269402 17.9144969 11.8954318 17.9140259 0.000163105288"></polygon>
                                        <polygon id="Fill-2" fill="#3D04C4" points="33.0306832 14.3103454 33.0306832 17.7350904 37.100094 17.7350904 37.100094 28.6053589 33.0306832 28.6053589 33.0306832 32.0301039 40.5612478 32.0301039 40.5612478 14.3103454"></polygon>
                                        <polygon id="Fill-3" fill="#3D04C4" points="14.459136 14.3103454 14.459136 32.0301039 21.9880522 32.0301039 21.9880522 28.6053589 17.9205253 28.6053589 17.9205253 17.7350904 21.9880522 17.7350904 21.9880522 14.3103454"></polygon>
                                    </g>
                                </g>
                                <text id="2" font-family="PTMono-Bold, PT Mono" font-size="14" font-weight="bold" line-spacing="15" letter-spacing="0.35" fill="#000000">
                                    <tspan x="23" y="27.4341085">2</tspan>
                                </text>
                            </g>
                        </g>
                    </g>
                </g>
            </g>
        </g>
    </g>
</svg>