<?xml version="1.0" encoding="UTF-8"?>
<svg width="92px" height="78px" viewBox="0 0 92 78" version="1.1" xmlns="http://www.w3.org/2000/svg" xmlns:xlink="http://www.w3.org/1999/xlink">
    <title>Group 9</title>
    <g id="Web-Pages" stroke="none" stroke-width="1" fill="none" fill-rule="evenodd">
        <g id="About-us-" transform="translate(-960.000000, -3137.000000)" fill="#000000">
            <g id="Group-32" transform="translate(235.000000, 3131.000000)">
                <g id="Group-28" transform="translate(600.000000, 6.000000)">
                    <g id="Group-23" transform="translate(68.000000, 0.000000)">
                        <g id="Group-9" transform="translate(57.000000, 0.000000)">
                            <g id="Group-4" transform="translate(0.292453, 0.000000)">
                                <path d="M56.6834435,-3.48214286e-05 L56.6834435,29.8224295 L38.2103324,57.9665009 L26.9246729,40.9569295 L26.9246729,38.6461795 L51.0151062,28.286108 L51.0151062,21.8566795 L26.0997527,11.1428223 L21.2561585,11.1428223 L21.2561585,40.9583223 L4.07135409,66.857108 L10.8391717,66.857108 L24.0903271,46.8849295 L34.8447571,63.0963938 L28.7171074,72.4285366 L7.08542158e-05,72.4285366 L7.08542158e-05,77.9999652 L90.6934671,77.9999652 L90.6934671,73.0010009 L62.3517808,29.8224295 L62.3517808,27.5033223 L86.442037,17.1432509 L86.442037,10.7139964 L61.5268606,-3.48214286e-05 L56.6834435,-3.48214286e-05 Z M62.3517808,6.43496518 L79.7819178,13.9285366 L62.3517808,21.422108 L62.3517808,6.43496518 Z M26.9246729,17.5778223 L44.3546328,25.0713937 L26.9246729,32.5649652 L26.9246729,17.5778223 Z M59.517435,35.7810723 L83.5724413,72.4285366 L35.4626059,72.4285366 L59.517435,35.7810723 Z" id="Fill-3"></path>
                            </g>
                        </g>
                    </g>
                </g>
            </g>
        </g>
    </g>
</svg>