<?xml version="1.0" encoding="UTF-8"?>
<svg width="30px" height="30px" viewBox="0 0 30 30" version="1.1" xmlns="http://www.w3.org/2000/svg" xmlns:xlink="http://www.w3.org/1999/xlink">
    <title>Group 15</title>
    <g id="Web-Pages" stroke="none" stroke-width="1" fill="none" fill-rule="evenodd">
        <g id="Home-Page" transform="translate(-946.000000, -2515.000000)" fill="#07E99A">
            <g id="Group-29" transform="translate(-77.000000, 2175.000000)">
                <g id="Group-28" transform="translate(0.000000, 150.000000)">
                    <g id="Group-4" transform="translate(1023.000000, 190.000000)">
                        <polygon id="Fill-1" points="13.3473913 0.000152173913 13.3478261 11.0918913 5.505 3.24993478 3.24913043 5.50602174 11.095 13.3512391 -1.59872116e-14 13.3516739 -1.59872116e-14 16.5421087 11.095 16.5416739 3.25021739 24.3873261 5.50630435 26.6431957 26.6426087 5.50515217 24.3863043 3.24928261 16.5382609 11.0981957 16.5376087 0.000152173913"></polygon>
                        <polygon id="Fill-1" transform="translate(16.555562, 16.499772) rotate(-180.000000) translate(-16.555562, -16.499772) " points="16.5816487 3.17825062 16.5820834 14.2699898 8.73925735 6.42803323 6.48338778 8.68412019 14.3292573 16.5293376 3.23425735 16.5297724 3.23425735 19.7202071 14.3292573 19.7197724 6.48447474 27.5654245 8.74056169 29.8212941 29.876866 8.68325062 27.6205617 6.42738106 19.7725182 14.2762941 19.771866 3.17825062"></polygon>
                    </g>
                </g>
            </g>
        </g>
    </g>
</svg>