<?xml version="1.0" encoding="UTF-8"?>
<svg width="283px" height="282px" viewBox="0 0 283 282" version="1.1" xmlns="http://www.w3.org/2000/svg" xmlns:xlink="http://www.w3.org/1999/xlink">
    <title>Group 15</title>
    <defs>
        <filter x="-4.5%" y="-4.5%" width="109.1%" height="109.1%" filterUnits="objectBoundingBox" id="filter-1">
            <feOffset dx="0" dy="2" in="SourceAlpha" result="shadowOffsetOuter1"></feOffset>
            <feGaussianBlur stdDeviation="2" in="shadowOffsetOuter1" result="shadowBlurOuter1"></feGaussianBlur>
            <feColorMatrix values="0 0 0 0 0   0 0 0 0 0   0 0 0 0 0  0 0 0 0.5 0" type="matrix" in="shadowBlurOuter1" result="shadowMatrixOuter1"></feColorMatrix>
            <feMerge>
                <feMergeNode in="shadowMatrixOuter1"></feMergeNode>
                <feMergeNode in="SourceGraphic"></feMergeNode>
            </feMerge>
        </filter>
    </defs>
    <g id="Web-Pages" stroke="none" stroke-width="1" fill="none" fill-rule="evenodd">
        <g id="Let's-Talk-1" transform="translate(95.000000, 9.000000)">
            <g id="Group-15" filter="url(#filter-1)" transform="translate(46.500000, 132.000000) scale(-1, 1) translate(-46.500000, -132.000000) translate(-86.000000, 0.000000)">
                <g id="Group-4">
                    <polygon id="Fill-1" fill="#07E99A" points="117.901957 0.0013442612 117.905797 97.982623 48.6275 28.7090024 28.7006522 48.6386349 98.0058333 117.941061 0 117.944902 0 146.128298 98.0058333 146.124457 28.7102536 215.430724 48.6390217 235.358436 235.343043 48.6309535 215.412355 28.7032413 146.087971 98.0383138 146.08221 0.0013442612"></polygon>
                    <polygon id="Fill-2" fill="#3D04C4" points="203.488891 117.941253 203.488891 146.166898 236.67342 146.166898 236.67342 235.756146 203.488891 235.756146 203.488891 263.98179 264.899761 263.98179 264.899761 117.941253"></polygon>
                    <polygon id="Fill-3" fill="#3D04C4" points="117.90887 117.941253 117.90887 263.98179 179.304377 263.98179 179.304377 235.756146 146.13329 235.756146 146.13329 146.166898 179.304377 146.166898 179.304377 117.941253"></polygon>
                </g>
            </g>
        </g>
    </g>
</svg>