<?xml version="1.0" encoding="UTF-8"?>
<svg width="547px" height="545px" viewBox="0 0 547 545" version="1.1" xmlns="http://www.w3.org/2000/svg" xmlns:xlink="http://www.w3.org/1999/xlink">
    <title>Group 14</title>
    <g id="Web-Pages" stroke="none" stroke-width="1" fill="none" fill-rule="evenodd">
        <g id="Home-Page" transform="translate(-1035.000000, -229.000000)">
            <g id="Group-4" transform="translate(1035.000000, 229.000000)">
                <polygon id="Fill-1" fill="#07E99A" points="243.367435 0.00277450903 243.379326 202.232774 100.3745 59.2543967 59.2424783 100.388475 202.298833 243.426306 0 243.434233 0 301.603797 202.298833 301.59587 59.2622971 444.641628 100.398283 485.771743 485.779601 100.372621 444.643616 59.2425059 301.543659 202.347718 301.535732 0.00277450903"></polygon>
                <polygon id="Fill-2" fill="#FFFFFF" points="420.031787 243.426703 420.031787 301.683465 488.529664 301.683465 488.529664 486.592601 420.031787 486.592601 420.031787 544.849364 546.789128 544.849364 546.789128 243.426703"></polygon>
                <polygon id="Fill-3" fill="#FFFFFF" points="243.381704 243.426703 243.381704 544.849364 370.111299 544.849364 370.111299 486.592601 301.645132 486.592601 301.645132 301.683465 370.111299 301.683465 370.111299 243.426703"></polygon>
            </g>
        </g>
    </g>
</svg>