<?xml version="1.0" encoding="UTF-8"?>
<svg width="501px" height="105px" viewBox="0 0 501 105" version="1.1" xmlns="http://www.w3.org/2000/svg" xmlns:xlink="http://www.w3.org/1999/xlink">
    <title>Group 27</title>
    <defs>
        <polygon id="path-1" points="0.0144353808 0.411967347 31.3211676 0.411967347 31.3211676 63.6734694 0.0144353808 63.6734694"></polygon>
        <polygon id="path-3" points="0.169934152 0.86797551 15.4692088 0.86797551 15.4692088 37.2435673 0.169934152 37.2435673"></polygon>
    </defs>
    <g id="Web-Pages" stroke="none" stroke-width="1" fill="none" fill-rule="evenodd">
        <g id="Home-Page" transform="translate(-135.000000, -318.000000)">
            <g id="Group-27" transform="translate(135.000000, 318.000000)">
                <path d="M16.1572229,41 L0,104 L8.07808424,104 L13.0160386,85.5509968 L43.9850158,85.5509968 L48.9219158,104 L57,104 L40.8427771,41 L16.1572229,41 Z M22.440646,48.650876 L34.559354,48.650876 L42.1893002,77.9001208 L14.8117543,77.9001208 L22.440646,48.650876 Z" id="Fill-1" fill="#07E99A"></path>
                <g id="Group-26" transform="translate(69.000000, 0.000000)">
                    <path d="M0.501098771,89.7273796 L7.8461602,89.7273796 C8.47983096,91.2831347 9.31517248,92.5788898 10.3521848,93.6157061 C12.9441848,96.2072163 16.2844894,97.5029714 20.3752216,97.5029714 C24.0615509,97.5029714 26.7830447,96.8980735 28.5407646,95.6893388 C30.2974231,94.4795429 31.176283,92.9237878 31.176283,91.0231347 C31.176283,89.9863184 30.81646,89.0948898 30.0968138,88.3456653 C29.3750447,87.597502 28.2085386,86.935298 26.5962339,86.3579918 C24.9828678,85.7838694 23.557374,85.3360327 22.3197523,85.0187265 C21.0800079,84.7035429 19.279831,84.3140735 16.9192216,83.8524408 C7.4141602,81.8955429 2.66109877,77.6623184 2.66109877,71.1527673 C2.66109877,67.7557878 4.10039115,64.8894204 6.9821602,62.556849 C9.86180639,60.2242776 13.8952216,59.0579918 19.0792216,59.0579918 C25.5305631,59.0579918 30.6285877,61.2175837 34.3743568,65.5378286 C35.8709661,67.4957878 36.9652953,69.6564408 37.6573445,72.0176653 L30.312283,72.0176653 C29.7943076,70.8651755 29.0449415,69.8007673 28.0663076,68.8201959 C25.8755263,66.631951 22.8812462,65.5378286 19.0792216,65.5378286 C16.0244403,65.5378286 13.6786909,66.1140735 12.0366663,67.265502 C10.3946418,68.4179918 9.5741602,69.7137469 9.5741602,71.1527673 C9.5741602,72.1895837 9.93292187,73.0831347 10.6536295,73.831298 C11.3743371,74.5805224 12.5397818,75.2427265 14.1542093,75.8189714 C15.7654526,76.3952163 17.1920079,76.8409306 18.4306909,77.1571755 C19.669374,77.4744816 21.4684894,77.863951 23.8312216,78.3234612 C33.3373445,80.2824816 38.0893445,84.5157061 38.0893445,91.0231347 C38.0893445,94.7098286 36.5343568,97.7926857 33.4233199,100.267461 C30.312283,102.744359 25.9625631,103.982808 20.3752216,103.982808 C13.3464649,103.982808 7.93213563,101.621584 4.13011106,96.8980735 C2.51674496,94.8244408 1.30672039,92.4356245 0.501098771,89.7273796" id="Fill-2" fill="#07E99A"></path>
                    <path d="M137.400519,103.815029 L137.398396,58.8923347 L144.627762,58.8923347 L144.629885,103.815029 L137.400519,103.815029 Z M137.49074,49.2468653 C136.525905,48.2843347 136.045079,47.1095592 136.045079,45.7225388 C136.045079,44.338702 136.525905,43.1639265 137.49074,42.1992735 C138.453453,41.2367429 139.62845,40.7538857 141.014671,40.7538857 C142.399831,40.7538857 143.574829,41.2367429 144.538602,42.1992735 C145.501315,43.1639265 145.984263,44.338702 145.984263,45.7225388 C145.984263,47.1095592 145.501315,48.2843347 144.538602,49.2468653 C143.574829,50.2104571 142.399831,50.6911918 141.014671,50.6911918 C139.62845,50.6911918 138.453453,50.2104571 137.49074,49.2468653 L137.49074,49.2468653 Z" id="Fill-4" fill="#07E99A"></path>
                    <path d="M159.790007,89.7315184 L167.13613,89.7315184 C167.7698,91.2872735 168.605142,92.5830286 169.642154,93.6198449 C172.235216,96.2113551 175.57552,97.5081714 179.667314,97.5081714 C183.353643,97.5081714 186.076199,96.9032735 187.833918,95.6934776 C189.590577,94.4836816 190.469437,92.9279265 190.469437,91.0272735 C190.469437,89.9904571 190.108552,89.0990286 189.389968,88.3498041 C188.668199,87.6016408 187.501692,86.9383755 185.889388,86.3621306 C184.276022,85.7869469 182.849466,85.3391102 181.611845,85.0228653 C180.3721,84.7066204 178.571923,84.317151 176.210253,83.8555184 C166.70413,81.8986204 161.951068,77.6643347 161.951068,71.1547837 C161.951068,67.7567429 163.390361,64.8903755 166.27213,62.5578041 C169.151776,60.2241714 173.186253,59.0578857 178.371314,59.0578857 C184.822656,59.0578857 189.921742,61.2185388 193.667511,65.5377224 C195.165181,67.4978041 196.259511,69.6573959 196.95156,72.0186204 L189.605437,72.0186204 C189.087461,70.8671918 188.338095,69.8017224 187.3584,68.821151 C185.16868,66.6329061 182.173339,65.5377224 178.371314,65.5377224 C175.316533,65.5377224 172.969722,66.1150286 171.327697,67.2664571 C169.685673,68.4189469 168.86413,69.7157633 168.86413,71.1547837 C168.86413,72.1916 169.223953,73.085151 169.94466,73.8333143 C170.664307,74.5825388 171.830813,75.2447429 173.44524,75.8209878 C175.056484,76.3972327 176.483039,76.8440082 177.722783,77.1591918 C178.961466,77.4775592 180.760582,77.8659673 183.124375,78.3254776 C192.629437,80.2855592 197.38356,84.5187837 197.38356,91.0272735 C197.38356,94.7139673 195.827511,97.7968245 192.716474,100.273722 C189.605437,102.75062 185.254656,103.989069 179.667314,103.989069 C172.637496,103.989069 167.222105,101.626784 163.420081,96.9032735 C161.806714,94.8296408 160.59669,92.4397633 159.790007,89.7315184" id="Fill-6" fill="#07E99A"></path>
                    <path d="M220.464354,69.8993551 C217.514654,72.9068653 216.040334,76.7527429 216.040334,81.4359265 C216.040334,86.1201714 217.514654,89.9671102 220.464354,92.972498 C223.414054,95.9800082 227.143902,97.482702 231.654958,97.482702 C236.167076,97.482702 239.897985,95.9800082 242.846624,92.972498 C245.796324,89.9671102 247.271705,86.1201714 247.271705,81.4359265 C247.271705,76.7527429 245.796324,72.9068653 242.846624,69.8993551 C239.897985,66.8929061 236.167076,65.389151 231.654958,65.389151 C227.143902,65.389151 223.414054,66.8929061 220.464354,69.8993551 M215.519174,97.5697224 C211.238447,93.2908653 209.098614,87.9136408 209.098614,81.4359265 C209.098614,74.9603347 211.238447,69.5831102 215.519174,65.3021306 C219.79884,61.0232735 225.177081,58.8838449 231.654958,58.8838449 C238.132835,58.8838449 243.511076,61.0232735 247.791803,65.3021306 C252.071469,69.5831102 254.212364,74.9603347 254.212364,81.4359265 C254.212364,87.9136408 252.071469,93.2908653 247.791803,97.5697224 C243.511076,101.849641 238.132835,103.989069 231.654958,103.989069 C225.177081,103.989069 219.79884,101.849641 215.519174,97.5697224" id="Fill-8" fill="#07E99A"></path>
                    <g id="Group-12" transform="translate(49.886978, 40.326531)">
                        <mask id="mask-2" fill="white">
                            <use xlink:href="#path-1"></use>
                        </mask>
                        <g id="Clip-11"></g>
                        <path d="M15.9994968,56.8998857 L16.0164796,25.4918857 L30.3839292,25.4918857 L30.3839292,18.7318857 L16.0164796,18.7318857 L16.0143568,0.411967347 L8.76482359,0.411967347 L8.75739361,16.6094367 C8.75739361,17.6568653 8.70856806,17.7725388 8.33813071,18.1439673 C7.96663194,18.5153959 7.21726585,18.7106612 6.16857789,18.7106612 L0.0144353808,18.7318857 L0.0154968059,25.4918857 L8.76906929,25.4844571 L8.77013071,54.5535184 C8.77013071,57.170498 9.24564914,59.4107429 10.6488531,61.0896 C12.0807155,62.8045388 14.3277523,63.6736816 17.3273396,63.6736816 L31.3211676,63.6620082 L31.3211676,56.8807837 L15.9994968,56.8998857 Z" id="Fill-10" fill="#07E99A" mask="url(#mask-2)"></path>
                    </g>
                    <path d="M294.169073,48.4349224 L294.169073,40.7399837 L279.897152,40.7389222 C275.837201,40.7378612 272.54466,44.0287184 272.54466,48.087902 L272.54466,57.2409633 C272.534046,58.0358204 272.462931,58.1705959 272.12752,58.5070041 C271.756022,58.8773714 271.006656,59.0726367 269.959029,59.0726367 L266.342754,59.0620245 L266.342754,65.8209633 L272.543599,65.8209633 L272.543599,103.982596 L279.772965,103.982596 L279.772965,65.8209633 L294.169073,65.8209633 L294.169073,59.0652082 L279.772965,59.0620245 L279.772965,48.4349224 L294.169073,48.4349224 Z" id="Fill-13" fill="#07E99A"></path>
                    <path d="M324.618174,97.2181388 L324.635157,65.8101388 L339.001545,65.8101388 L339.001545,59.0501388 L324.635157,59.0501388 L324.633034,40.7302204 L317.383501,40.7302204 L317.375009,56.9276898 C317.375009,57.9751184 317.327245,58.0907918 316.955746,58.4622204 C316.585309,58.833649 315.835943,59.0289143 314.787255,59.0289143 L308.633113,59.0501388 L308.633113,65.8101388 L317.387746,65.8027102 L317.388808,94.8717714 C317.388808,97.488751 317.863265,99.7289959 319.26753,101.407853 C320.699393,103.122792 322.946429,103.991935 325.946017,103.991935 L339.938783,103.980261 L339.938783,97.1990367 L324.618174,97.2181388 Z" id="Fill-15" fill="#07E99A"></path>
                    <path d="M122.377852,59.0513061 L102.953773,59.0608571 L102.953773,59.0576735 C98.9596305,59.0576735 95.722284,62.2944082 95.722284,66.2867347 L95.722284,103.980367 L102.950589,103.980367 L102.952712,69.7866531 L102.953773,67.9358776 C102.953773,66.8895102 103.002599,66.7727755 103.373036,66.4013469 C103.744535,66.0309796 104.493901,65.8346531 105.541527,65.8346531 L122.377852,65.8113061 L122.377852,59.0513061 Z" id="Fill-17" fill="#07E99A"></path>
                    <polygon id="Fill-19" fill="#07E99A" points="423.122878 12.2574612 418.157531 7.29411429 400.886023 24.5634204 400.884961 0.144644898 393.864696 0.144644898 393.865757 24.5496245 376.605924 7.29517551 371.641639 12.2595837 388.907841 29.5214612 364.490819 29.5225224 364.490819 36.5425224 388.907841 36.5414612 371.643762 53.8033388 376.608047 58.7677469"></polygon>
                    <g id="Group-23" transform="translate(415.017199, 28.653061)">
                        <mask id="mask-4" fill="white">
                            <use xlink:href="#path-3"></use>
                        </mask>
                        <g id="Clip-22"></g>
                        <polygon id="Fill-21" fill="#FFFFFF" mask="url(#mask-4)" points="0.169934152 0.86797551 0.169934152 7.89858776 8.43737396 7.89858776 8.43737396 30.2129551 0.169934152 30.2129551 0.169934152 37.2435673 15.469315 37.2435673 15.469315 0.86797551"></polygon>
                    </g>
                    <polygon id="Fill-24" fill="#FFFFFF" points="409.161635 58.8663347 400.89738 58.8663347 400.89738 36.5519673 409.161635 36.5519673 409.161635 29.5213551 393.865439 29.5213551 393.865439 65.8969469 409.161635 65.8969469"></polygon>
                </g>
            </g>
        </g>
    </g>
</svg>