<?xml version="1.0" encoding="UTF-8"?>
<svg width="40px" height="40px" viewBox="0 0 40 40" version="1.1" xmlns="http://www.w3.org/2000/svg" xmlns:xlink="http://www.w3.org/1999/xlink">
    <title>Group 4</title>
    <g id="Web-Pages" stroke="none" stroke-width="1" fill="none" fill-rule="evenodd">
        <g id="Burger-Menu" transform="translate(-65.000000, -30.000000)">
            <g id="Group-4" transform="translate(65.000000, 30.000000)">
                <polygon id="Fill-1" fill="#07E99A" points="17.7965217 0.000202898551 17.7971014 14.7891884 7.34 4.33324638 4.33217391 7.34136232 14.7933333 17.8016522 0 17.8022319 0 22.0561449 14.7933333 22.0555652 4.33362319 32.5164348 7.34173913 35.5242609 35.5234783 7.3402029 32.5150725 4.33237681 22.0510145 14.7975942 22.0501449 0.000202898551"></polygon>
                <polygon id="Fill-2" fill="#3D04C4" points="30.7153043 17.8016812 30.7153043 22.061971 35.7242899 22.061971 35.7242899 35.5842899 30.7153043 35.5842899 30.7153043 39.8445797 39.9848696 39.8445797 39.9848696 17.8016812"></polygon>
                <polygon id="Fill-3" fill="#3D04C4" points="17.7975652 17.8016812 17.7975652 39.8445797 27.0648116 39.8445797 27.0648116 35.5842899 22.0578551 35.5842899 22.0578551 22.061971 27.0648116 22.061971 27.0648116 17.8016812"></polygon>
            </g>
        </g>
    </g>
</svg>