<?xml version="1.0" encoding="UTF-8"?>
<svg width="9px" height="18px" viewBox="0 0 9 18" version="1.1" xmlns="http://www.w3.org/2000/svg" xmlns:xlink="http://www.w3.org/1999/xlink">
    <title>3. Icons/ic_facebook</title>
    <defs>
        <path d="M5.84163569,18 L5.84163569,9.78910776 L8.49814126,9.78910776 L8.8929368,6.59096176 L5.84163569,6.59096176 L5.84163569,4.54692932 C5.84163569,3.62224797 6.08921933,2.98957126 7.36728625,2.98957126 L9,2.98957126 L9,0.125144844 C8.71895911,0.0834298957 7.74869888,0 6.62453532,0 C4.26914498,0 2.66319703,1.49478563 2.66319703,4.23406721 L2.66319703,6.59791425 L0,6.59791425 L0,9.79606025 L2.66319703,9.79606025 L2.66319703,18 L5.84163569,18 Z" id="path-1"></path>
    </defs>
    <g id="Web-Pages" stroke="#FFFFFF" stroke-width="1" fill="#FFFFFF" fill-rule="evenodd">
        <g id="Burger-Menu" transform="translate(-77.000000, -704.000000)">
            <g id="Group" transform="translate(66.000000, 537.000000)">
                <g id="Follow-Us" transform="translate(0.000000, 167.000000)">
                    <g id="3.-Icons/ic_facebook" transform="translate(11.000000, 0.000000)">
                        <mask id="mask-2" fill="white">
                            <use xlink:href="#path-1"></use>
                        </mask>
                        <g id="Icon"></g>
                        <g id="Icon-Color" mask="url(#mask-2)" fill="#3D04C4">
                            <g transform="translate(-9.000000, -4.000000)" id="Gray-85">
                                <rect x="0" y="0" width="26" height="26"></rect>
                            </g>
                        </g>
                    </g>
                </g>
            </g>
        </g>
    </g>
</svg>
