<?xml version="1.0" encoding="UTF-8"?>
<svg width="30px" height="30px" viewBox="0 0 30 30" version="1.1" xmlns="http://www.w3.org/2000/svg" xmlns:xlink="http://www.w3.org/1999/xlink">
    <title>3. Icons/ic_instagram</title>
    <defs>
        <path d="M15.7316702,7.00060375 C16.7460797,7.00251964 17.2182536,7.00916892 17.6415159,7.02300593 L17.9117293,7.03291545 C18.0331444,7.03778121 18.1591963,7.04327666 18.301391,7.04945904 C19.1483771,7.08655332 19.7357032,7.22256569 20.2426584,7.42040185 C20.7681607,7.6244204 21.2132921,7.89644513 21.6584235,8.34157651 C22.1035549,8.78670788 22.3755796,9.23183926 22.5795981,9.75734158 C22.7774343,10.2642968 22.9134467,10.8454405 22.950541,11.698609 C22.9595569,11.8763524 22.9669629,12.0288726 22.9730384,12.1786423 L22.9797083,12.3584841 C22.9928534,12.7515134 22.9977603,13.1867165 22.9993417,14.0590761 L22.9999656,14.7377131 L22.9999656,14.7377131 L23,15 C23,15.0906749 22.9999785,15.178044 22.9999347,15.2622869 L22.9993963,15.7316702 C22.9974804,16.7460797 22.9908311,17.2182536 22.9769941,17.6415159 L22.9670845,17.9117293 C22.9622188,18.0331444 22.9567233,18.1591963 22.950541,18.301391 C22.9134467,19.1483771 22.7774343,19.7357032 22.5795981,20.2426584 C22.3755796,20.7681607 22.1035549,21.2132921 21.6584235,21.6584235 C21.2132921,22.1035549 20.7681607,22.3755796 20.2426584,22.5795981 C19.7357032,22.7774343 19.1545595,22.9134467 18.301391,22.950541 C18.1236476,22.9595569 17.9711274,22.9669629 17.8213577,22.9730384 L17.6415159,22.9797083 C17.2484866,22.9928534 16.8132835,22.9977603 15.9409239,22.9993417 L15.2622869,22.9999656 L15.2622869,22.9999656 L15,23 C14.9093251,23 14.821956,22.9999785 14.7377131,22.9999347 L14.2683298,22.9993963 C13.2539203,22.9974804 12.7817464,22.9908311 12.3584841,22.9769941 L12.0882707,22.9670845 C11.9668556,22.9622188 11.8408037,22.9567233 11.698609,22.950541 C10.8516229,22.9134467 10.2642968,22.7774343 9.75734158,22.5795981 C9.23183926,22.3755796 8.78670788,22.1035549 8.34157651,21.6584235 C7.89644513,21.2132921 7.6244204,20.7681607 7.42040185,20.2426584 C7.22256569,19.7357032 7.08655332,19.1545595 7.04945904,18.301391 C7.04044307,18.1236476 7.03303709,17.9711274 7.0269616,17.8213577 L7.02029175,17.6415159 C7.00714659,17.2484866 7.00223968,16.8132835 7.00065831,15.9409239 L7.00060375,14.2683298 C7.00251964,13.2539203 7.00916892,12.7817464 7.02300593,12.3584841 L7.03291545,12.0882707 C7.03778121,11.9668556 7.04327666,11.8408037 7.04945904,11.698609 C7.08655332,10.8516229 7.22256569,10.2642968 7.42040185,9.75734158 C7.6244204,9.23183926 7.89644513,8.78670788 8.34157651,8.34157651 C8.78670788,7.89644513 9.23183926,7.6244204 9.75734158,7.42040185 C10.2642968,7.22256569 10.8454405,7.08655332 11.698609,7.04945904 C11.8763524,7.04044307 12.0288726,7.03303709 12.1786423,7.0269616 L12.3584841,7.02029175 C12.7515134,7.00714659 13.1867165,7.00223968 14.0590761,7.00065831 Z M15.9068837,9.00073009 L14.2927008,9.00065899 C13.3928867,9.00260413 12.9851796,9.00903276 12.6032973,9.02227627 L12.4271798,9.02888105 C12.3087267,9.03361815 12.1859271,9.03903441 12.0451977,9.04519774 C11.3333333,9.07909605 10.9491525,9.19774011 10.6892655,9.29943503 C10.3446328,9.43502825 10.1016949,9.59322034 9.84745763,9.84745763 C9.59322034,10.1016949 9.42937853,10.3502825 9.29943503,10.6892655 C9.19774011,10.9435028 9.07909605,11.3333333 9.04519774,12.0451977 C9.01284027,12.6738572 9.00317505,12.9470047 9.00073009,14.0931163 L9.00065899,15.7072992 C9.00260413,16.6071133 9.00903276,17.0148204 9.02227627,17.3967027 L9.02888105,17.5728202 C9.03361815,17.6912733 9.03903441,17.8140729 9.04519774,17.9548023 C9.07909605,18.6666667 9.19774011,19.0508475 9.29943503,19.3107345 C9.43502825,19.6553672 9.59322034,19.8983051 9.84745763,20.1525424 C10.1016949,20.4067797 10.3502825,20.5706215 10.6892655,20.700565 C10.9435028,20.8022599 11.3333333,20.920904 12.0451977,20.9548023 C12.6738572,20.9871597 12.9432227,20.996825 14.0910534,20.9992699 L14.7439046,20.9999623 L14.7439046,20.9999623 L15,21 C15.0888546,21 15.1741374,20.9999767 15.256062,20.9999289 L15.7090231,20.999341 C16.5411934,20.9975455 16.9513794,20.9919297 17.3090753,20.98066 L17.5732787,20.9711189 C17.6914601,20.9663818 17.8140729,20.9609656 17.9548023,20.9548023 C18.6666667,20.920904 19.0508475,20.8022599 19.3107345,20.700565 C19.6553672,20.5649718 19.8983051,20.4067797 20.1525424,20.1525424 C20.4067797,19.8983051 20.5706215,19.6497175 20.700565,19.3107345 C20.8022599,19.0564972 20.920904,18.6666667 20.9548023,17.9548023 C20.9840781,17.2912173 20.9964981,17.0237428 20.999341,15.7075714 L20.9999289,15.2553934 L20.9999289,15.2553934 L21,15 C21,14.9114022 20.9999767,14.8263529 20.9999289,14.74464 L20.999341,14.2927008 C20.9973959,13.3928867 20.9909672,12.9851796 20.9777237,12.6032973 L20.9711189,12.4271798 C20.9663818,12.3087267 20.9609656,12.1859271 20.9548023,12.0451977 C20.920904,11.3333333 20.8022599,10.9491525 20.700565,10.6892655 C20.5649718,10.3446328 20.4067797,10.1016949 20.1525424,9.84745763 C19.8983051,9.59322034 19.6497175,9.42937853 19.3107345,9.29943503 C19.0564972,9.19774011 18.6666667,9.07909605 17.9548023,9.04519774 C17.3261428,9.01284027 17.0529953,9.00317505 15.9068837,9.00073009 Z M15,11 C17.2075188,11 19,12.7924812 19,15 C19,17.2075188 17.2075188,19 15,19 C12.7924812,19 11,17.2075188 11,15 C11,12.7924812 12.7924812,11 15,11 Z M15,13 C13.8935185,13 13,13.8981481 13,15 C13,16.1064815 13.8981481,17 15,17 C16.1018519,17 17,16.1018519 17,15 C17,13.8935185 16.1064815,13 15,13 Z M19,10 C19.5522847,10 20,10.4477153 20,11 C20,11.5522847 19.5522847,12 19,12 C18.4477153,12 18,11.5522847 18,11 C18,10.4477153 18.4477153,10 19,10 Z" id="path-1"></path>
    </defs>
    <g id="Web-Pages" stroke="none" stroke-width="1" fill="none" fill-rule="evenodd">
        <g id="Burger-Menu" transform="translate(-66.000000, -750.000000)">
            <g id="Group" transform="translate(66.000000, 537.000000)">
                <g id="Follow-Us" transform="translate(0.000000, 167.000000)">
                    <g id="3.-Icons/ic_instagram" transform="translate(0.000000, 46.000000)">
                        <mask id="mask-2" fill="white">
                            <use xlink:href="#path-1"></use>
                        </mask>
                        <g id="Icon"></g>
                        <g id="Icon-Color" mask="url(#mask-2)" fill="#3D04C4">
                            <g transform="translate(2.000000, 2.000000)" id="Gray-85">
                                <rect x="0" y="0" width="26" height="26"></rect>
                            </g>
                        </g>
                    </g>
                </g>
            </g>
        </g>
    </g>
</svg>